<?xml version="1.0" encoding="UTF-8" standalone="no"?>
<!-- Created with Inkscape (http://www.inkscape.org/) -->

<svg
   xmlns:dc="http://purl.org/dc/elements/1.1/"
   xmlns:cc="http://creativecommons.org/ns#"
   xmlns:rdf="http://www.w3.org/1999/02/22-rdf-syntax-ns#"
   xmlns:svg="http://www.w3.org/2000/svg"
   xmlns="http://www.w3.org/2000/svg"
   xmlns:sodipodi="http://sodipodi.sourceforge.net/DTD/sodipodi-0.dtd"
   xmlns:inkscape="http://www.inkscape.org/namespaces/inkscape"
   width="210mm"
   height="297mm"
   viewBox="0 0 744.09448819 1052.3622047"
   id="svg3334"
   version="1.1"
   inkscape:version="0.91 r13725"
   sodipodi:docname="circle.svg">
  <defs
     id="defs3336" />
  <sodipodi:namedview
     id="base"
     pagecolor="#ffffff"
     bordercolor="#666666"
     borderopacity="1.0"
     inkscape:pageopacity="0.0"
     inkscape:pageshadow="2"
     inkscape:zoom="0.7"
     inkscape:cx="375"
     inkscape:cy="520"
     inkscape:document-units="px"
     inkscape:current-layer="layer1"
     showgrid="false"
     inkscape:window-width="1276"
     inkscape:window-height="755"
     inkscape:window-x="0"
     inkscape:window-y="1"
     inkscape:window-maximized="1" />
  <metadata
     id="metadata3339">
    <rdf:RDF>
      <cc:Work
         rdf:about="">
        <dc:format>image/svg+xml</dc:format>
        <dc:type
           rdf:resource="http://purl.org/dc/dcmitype/StillImage" />
        <dc:title></dc:title>
      </cc:Work>
    </rdf:RDF>
  </metadata>
  <g
     inkscape:label="Layer 1"
     inkscape:groupmode="layer"
     id="layer1">
    <path
       style="fill:none;fill-rule:evenodd;stroke:#000000;stroke-width:1px;stroke-linecap:butt;stroke-linejoin:miter;stroke-opacity:1"
       d="m 414.28571,255.21935 28.57143,7.14285 17.14286,10 21.42857,14.28572 15.71429,22.85714 18.57143,27.14286 8.57142,30 1.42858,32.85714 0,32.85714 1.42857,38.57143 -1.42857,30 0,57.14286 0,41.42857 0,32.85714 -5.71429,45.71429 -10,28.57143 -30,37.14286 -45.71429,21.42857 -48.57142,17.14285 -42.85715,0 -35.71428,-5.71428 -40,-4.28572 -40,-21.42857 -30,-12.85714 L 180,712.3622 l -15.71429,-24.28571 -5.71428,-37.14286 -5.71429,-30 0,-44.28571 -4.28571,-42.85714 0,-55.71429 0,-37.14286 7.14286,-64.28571 0,-30 11.42857,-27.14286 18.57143,-25.71428 32.85714,-25.71429 57.14286,-17.14286 45.71428,-2.85714 L 370,246.64792 Z"
       id="path3342"
       inkscape:connector-curvature="0" />
  </g>
</svg>
